# xmcd CD database file
#
# Track frame offsets:
#	180
#	18852
#	34779
#	62012
#	88148
#	105727
#	127289
#	146648
#	174655
#	206361
#	228919
#	248940
#	270394
#	290789
#
# Disc length: 4085 seconds
#
# Revision: 0
# Processed by: cddbd v1.4PL0 Copyright (c) Steve Scherf et al.
# Submitted via: CDex 1.50beta10
#
DISCID=cd0ff30e
DTITLE=CBC Freeform - Favorite Things
DYEAR=1996
DGENRE=Jazz
TTITLE0=I'm Gonna Lock My Heart and Throw Away The Key
TTITLE1=Talk to Me Baby
TTITLE2=My Favorite Things
TTITLE3=Here's to Life
TTITLE4=Inch Worm
TTITLE5=Evolution
TTITLE6=firm Roots
TTITLE7=Never Let Me Go
TTITLE8=Swingin' til the Girls Come Home
TTITLE9=Canteloupe Island
TTITLE10=That's Life
TTITLE11=You Taught My Heart to Sing
TTITLE12=You've Proven Your Point
TTITLE13=It's A pity to Say Goodnight
EXTD=YEAR: 1996
EXTT0=
EXTT1=
EXTT2=
EXTT3=
EXTT4=
EXTT5=
EXTT6=
EXTT7=
EXTT8=
EXTT9=
EXTT10=
EXTT11=
EXTT12=
EXTT13=
PLAYORDER=
